<?xml version="1.0" encoding="UTF-8" standalone="no"?>
<!-- Created with Inkscape (http://www.inkscape.org/) -->

<svg
   version="1.1"
   id="svg25"
   width="600"
   height="600"
   viewBox="0 0 599.99999 600"
   sodipodi:docname="CA."
   inkscape:version="1.2.1 (0f2f062aeb, 2022-09-21, custom)"
   xmlns:inkscape="http://www.inkscape.org/namespaces/inkscape"
   xmlns:sodipodi="http://sodipodi.sourceforge.net/DTD/sodipodi-0.dtd"
   xmlns="http://www.w3.org/2000/svg"
   xmlns:svg="http://www.w3.org/2000/svg">
  <defs
     id="defs29">
    <clipPath
       clipPathUnits="userSpaceOnUse"
       id="clipPath41">
      <path
         d="M 0,368.426 H 268.383 V 0 H 0 Z"
         id="path39" />
    </clipPath>
    <clipPath
       clipPathUnits="userSpaceOnUse"
       id="clipPath49">
      <path
         d="m -147.809,470.596 h 555.34 V -84.7433 h -555.34 z"
         id="path47" />
    </clipPath>
    <clipPath
       clipPathUnits="userSpaceOnUse"
       id="clipPath67">
      <path
         d="M 0,368.426 H 268.383 V 0 H 0 Z"
         id="path65" />
    </clipPath>
    <clipPath
       clipPathUnits="userSpaceOnUse"
       id="clipPath79">
      <path
         d="M 0,368.426 H 268.383 V 0 H 0 Z"
         id="path77" />
    </clipPath>
  </defs>
  <sodipodi:namedview
     id="namedview27"
     pagecolor="#ffffff"
     bordercolor="#000000"
     borderopacity="0.25"
     inkscape:showpageshadow="2"
     inkscape:pageopacity="0.0"
     inkscape:pagecheckerboard="0"
     inkscape:deskcolor="#d1d1d1"
     showgrid="false"
     inkscape:zoom="0.8691574"
     inkscape:cx="210.54875"
     inkscape:cy="383.70495"
     inkscape:window-width="1846"
     inkscape:window-height="1129"
     inkscape:window-x="74"
     inkscape:window-y="34"
     inkscape:window-maximized="1"
     inkscape:current-layer="g33">
    <inkscape:page
       x="0"
       y="0"
       id="page31"
       width="600"
       height="600" />
  </sodipodi:namedview>
  <g
     id="g33"
     inkscape:groupmode="layer"
     inkscape:label="Page 1"
     transform="matrix(1.3333333,0,0,-1.3333333,-62.595865,456.22444)">
    <g
       id="g61"
       transform="translate(139.5,-67.5)">
      <g
         id="g63"
         clip-path="url(#clipPath67)">
        <g
           id="g69"
           transform="translate(76.0094,51.418)">
          <path
             d="m 0,0 c -0.135,-1.012 0.301,-2.018 1.063,-2.696 1.87,-1.664 6.764,-5.126 15.119,-5.126 11,0 21,14 23,40 2,26 15.5,179.5 22.5,214.5 7,35 27.024,45.044 50,44 22,-1 38.453,-41.254 14,-43 -14,-1 -14,14 -14,14 0,0 -0.094,8.484 9,10 6,1 0,10 -12,10 -0.375,0 -0.743,-0.008 -1.104,-0.023 -8.364,-0.35 -15.582,-6.01 -18.302,-13.927 -2.314,-6.735 -5.728,-19.523 -7.594,-40.05 -3,-33 -15,-172 -24,-207 C 52.39,0.095 44.344,-14.435 22.704,-16.938 c -7.377,-0.853 -14.814,0.412 -21.432,3.781 -7.747,3.944 -16.59,11.185 -16.59,27.835 0,6 3,13 14,13 5.107,0 8.275,-2.587 10.202,-5.359 2.251,-3.237 3.087,-7.237 2.66,-11.157 C 11.073,6.834 9.309,0.553 3.682,1.678 0.932,2.228 0.148,1.114 0,0"
             style="fill:#000000;fill-opacity:1;fill-rule:nonzero;stroke:none"
             id="path71" />
        </g>
      </g>
    </g>
    <g
       id="g73"
       transform="translate(139.5,-67.5)">
      <g
         id="g75"
         clip-path="url(#clipPath79)">
        <g
           id="g81"
           transform="translate(48.9469,197.7056)">
          <path
             d="m 0,0 c 0,-47.118 38.127,-85.245 85.245,-85.245 47.117,0 85.244,38.127 85.244,85.245"
             style="fill:none;stroke:#000000;stroke-width:4;stroke-linecap:butt;stroke-linejoin:miter;stroke-miterlimit:10;stroke-dasharray:none;stroke-opacity:1"
             id="path83" />
        </g>
        <g
           id="g85"
           transform="translate(64.4459,197.7056)">
          <path
             d="m 0,0 c 0,-38.551 31.195,-69.746 69.746,-69.746 38.55,0 69.745,31.195 69.745,69.746"
             style="fill:none;stroke:#000000;stroke-width:4;stroke-linecap:butt;stroke-linejoin:miter;stroke-miterlimit:10;stroke-dasharray:none;stroke-opacity:1"
             id="path87" />
        </g>
        <g
           id="g89"
           transform="translate(79.9449,197.7056)">
          <path
             d="m 0,0 c 0,-29.984 24.263,-54.247 54.247,-54.247 29.984,0 54.246,24.263 54.246,54.247"
             style="fill:none;stroke:#000000;stroke-width:4;stroke-linecap:butt;stroke-linejoin:miter;stroke-miterlimit:10;stroke-dasharray:none;stroke-opacity:1"
             id="path91" />
        </g>
        <g
           id="g93"
           transform="translate(95.4439,197.7056)">
          <path
             d="m 0,0 c 0,-21.417 17.331,-38.748 38.748,-38.748 21.417,0 38.747,17.331 38.747,38.748"
             style="fill:none;stroke:#000000;stroke-width:4;stroke-linecap:butt;stroke-linejoin:miter;stroke-miterlimit:10;stroke-dasharray:none;stroke-opacity:1"
             id="path95" />
        </g>
        <g
           id="g97"
           transform="translate(110.943,197.7056)">
          <path
             d="m 0,0 c 0,-12.851 10.398,-23.249 23.249,-23.249 12.85,0 23.248,10.398 23.248,23.249"
             style="fill:none;stroke:#000000;stroke-width:4;stroke-linecap:butt;stroke-linejoin:miter;stroke-miterlimit:10;stroke-dasharray:none;stroke-opacity:1"
             id="path99" />
        </g>
        <g
           id="g101"
           transform="translate(122.442,197.7056)">
          <path
             d="m 0,0 c 0,-4.284 3.466,-7.75 7.749,-7.75 4.284,0 7.75,3.466 7.75,7.75"
             style="fill:none;stroke:#000000;stroke-width:4;stroke-linecap:butt;stroke-linejoin:miter;stroke-miterlimit:10;stroke-dasharray:none;stroke-opacity:1"
             id="path103" />
        </g>
        <g
           id="g105"
           transform="translate(141.9405,275.2002)">
          <path
             d="M 0,0 C 42.835,0 77.495,-34.661 77.495,-77.495"
             style="fill:none;stroke:#000000;stroke-width:4;stroke-linecap:butt;stroke-linejoin:miter;stroke-miterlimit:10;stroke-dasharray:none;stroke-opacity:1"
             id="path107" />
        </g>
        <g
           id="g109"
           transform="translate(64.4459,197.7056)">
          <path
             d="M 0,0 C 0,42.834 34.661,77.495 77.495,77.495"
             style="fill:none;stroke:#000000;stroke-width:4;stroke-linecap:butt;stroke-linejoin:miter;stroke-miterlimit:10;stroke-dasharray:none;stroke-opacity:1"
             id="path111" />
        </g>
        <g
           id="g113"
           transform="translate(79.9449,197.7056)">
          <path
             d="M 0,0 C 0,34.267 27.729,61.996 61.996,61.996 96.263,61.996 123.992,34.267 123.992,0"
             style="fill:none;stroke:#000000;stroke-width:4;stroke-linecap:butt;stroke-linejoin:miter;stroke-miterlimit:10;stroke-dasharray:none;stroke-opacity:1"
             id="path115" />
        </g>
        <g
           id="g117"
           transform="translate(95.4439,197.7056)">
          <path
             d="M 0,0 C 0,25.7 20.796,46.497 46.497,46.497 72.198,46.497 92.994,25.7 92.994,0"
             style="fill:none;stroke:#000000;stroke-width:4;stroke-linecap:butt;stroke-linejoin:miter;stroke-miterlimit:10;stroke-dasharray:none;stroke-opacity:1"
             id="path119" />
        </g>
        <g
           id="g121"
           transform="translate(110.943,197.7056)">
          <path
             d="M 0,0 C 0,17.133 13.864,30.998 30.998,30.998 48.131,30.998 61.996,17.133 61.996,0"
             style="fill:none;stroke:#000000;stroke-width:4;stroke-linecap:butt;stroke-linejoin:miter;stroke-miterlimit:10;stroke-dasharray:none;stroke-opacity:1"
             id="path123" />
        </g>
        <g
           id="g125"
           transform="translate(122.442,197.7056)">
          <path
             d="M 0,0 C 0,8.566 10.932,15.499 19.499,15.499 28.066,15.499 34.998,8.566 34.998,0"
             style="fill:none;stroke:#000000;stroke-width:4;stroke-linecap:butt;stroke-linejoin:miter;stroke-miterlimit:10;stroke-dasharray:none;stroke-opacity:1"
             id="path127" />
        </g>
      </g>
    </g>
  </g>
</svg>
